<svg width="54" height="74" viewBox="0 0 54 74" fill="none" xmlns="http://www.w3.org/2000/svg">
<path d="M51.136 0.0140274H11.136C9.65 -0.0610889 8.1642 0.16605 6.7685 0.681702C5.3728 1.19735 4.09623 1.9908 3.01601 3.01403C1.98777 4.09897 1.19144 5.38209 0.675637 6.78507C0.159838 8.18804 -0.0646056 9.68142 0.0160092 11.174V63.414C-0.0357236 65.1098 0.207907 66.8017 0.736009 68.414C1.14945 69.6025 1.89999 70.645 2.89601 71.414C3.9482 72.1739 5.15823 72.6866 6.43601 72.914C8.03844 73.2121 9.66619 73.3528 11.296 73.334C13.1618 73.3324 15.0255 73.2122 16.876 72.974C18.2698 72.8214 19.6525 72.5809 21.016 72.254V46.934H42.016C42.9953 46.9807 43.9737 46.8274 44.8918 46.4835C45.8099 46.1397 46.6483 45.6125 47.356 44.934C48.6893 43.6007 49.356 41.4207 49.356 38.394C49.3641 36.8497 49.1417 35.3127 48.696 33.834C48.3256 32.6103 47.7582 31.4551 47.016 30.414H20.776V16.814H46.016C46.9953 16.8607 47.9737 16.7074 48.8918 16.3635C49.8099 16.0197 50.6483 15.4925 51.356 14.814C52.6893 13.4807 53.356 11.2607 53.356 8.15403C53.3611 6.59018 53.1388 5.03389 52.696 3.53403C52.3379 2.29544 51.8131 1.11127 51.136 0.0140274V0.0140274Z" fill="#1D1D1B"/>
</svg>
