<svg xmlns="http://www.w3.org/2000/svg" viewBox="0 0 328.08 81.24"><defs><style>.cls-1{fill:#1d1d1b;}</style></defs><title>fubon-black</title><g id="Слой_2" data-name="Слой 2"><g id="Слой_1-2" data-name="Слой 1"><path class="cls-1" d="M51.12,6.6h-40A11,11,0,0,0,3,9.6a11,11,0,0,0-3,8.16V70a14.63,14.63,0,0,0,.72,5,6.48,6.48,0,0,0,2.16,3,8.63,8.63,0,0,0,3.54,1.5,25,25,0,0,0,4.86.42,44,44,0,0,0,5.58-.36A33.32,33.32,0,0,0,21,78.84V53.52H42a7.22,7.22,0,0,0,5.34-2q2-2,2-6.54a15.52,15.52,0,0,0-.66-4.56A11.76,11.76,0,0,0,47,37H20.76V23.4H46a7.22,7.22,0,0,0,5.34-2q2-2,2-6.66a16.13,16.13,0,0,0-.66-4.62A14.23,14.23,0,0,0,51.12,6.6Z"/><path class="cls-1" d="M114.12,22.56a8.07,8.07,0,0,0-3.54-1.44,28.22,28.22,0,0,0-4.74-.36,38.61,38.61,0,0,0-5.34.36,27.82,27.82,0,0,0-3.78.72v42a15.49,15.49,0,0,1-2.7,1,17.37,17.37,0,0,1-4.5.48q-4.56,0-7-2.1t-2.4-7V30.36a12.73,12.73,0,0,0-.78-4.86,6.93,6.93,0,0,0-2.22-2.94,8.07,8.07,0,0,0-3.54-1.44,28.22,28.22,0,0,0-4.74-.36,38.61,38.61,0,0,0-5.34.36,27.82,27.82,0,0,0-3.78.72V56.16a27.51,27.51,0,0,0,2.16,11.46A19.85,19.85,0,0,0,68,75.36a26.67,26.67,0,0,0,9.42,4.44A46.74,46.74,0,0,0,89.4,81.24a54.82,54.82,0,0,0,12.66-1.38,33,33,0,0,0,10-4,9.81,9.81,0,0,0,5-9V30.36a12.73,12.73,0,0,0-.78-4.86A6.93,6.93,0,0,0,114.12,22.56Z"/><path class="cls-1" d="M181.92,27.18a27,27,0,0,0-9.12-5.94,29.43,29.43,0,0,0-10.92-2,34,34,0,0,0-5.94.48,29.17,29.17,0,0,0-5.7,1.68V9.6a13.69,13.69,0,0,0-.72-4.86,6.51,6.51,0,0,0-2.16-2.94A8.07,8.07,0,0,0,143.82.36,28.22,28.22,0,0,0,139.08,0a34.32,34.32,0,0,0-5.4.42,32.61,32.61,0,0,0-3.84.78v64q0,5.88,5.28,9.6a35.23,35.23,0,0,0,9.36,4.62,42.4,42.4,0,0,0,13.44,1.86,42.9,42.9,0,0,0,13.38-2,27.73,27.73,0,0,0,10.26-5.82,26,26,0,0,0,6.54-9.66,36.37,36.37,0,0,0,2.34-13.62,36,36,0,0,0-2.28-13.32A27.6,27.6,0,0,0,181.92,27.18ZM166.5,61.38a10.42,10.42,0,0,1-8.58,3.78,16.83,16.83,0,0,1-4.62-.54,12.28,12.28,0,0,1-3.18-1.38V37.08a23.91,23.91,0,0,1,3.78-1.44,15.7,15.7,0,0,1,4.14-.48,10.4,10.4,0,0,1,8.4,3.72q3.12,3.72,3.12,11.28T166.5,61.38Z"/><path class="cls-1" d="M252.06,27.66a29,29,0,0,0-9.9-6.24,35.45,35.45,0,0,0-12.84-2.22,36.33,36.33,0,0,0-12.84,2.16,28.26,28.26,0,0,0-9.9,6.18,27.57,27.57,0,0,0-6.42,9.78,34.62,34.62,0,0,0-2.28,12.84,35,35,0,0,0,2.28,13,27.57,27.57,0,0,0,6.42,9.78,28.26,28.26,0,0,0,9.9,6.18,36.33,36.33,0,0,0,12.84,2.16,38.26,38.26,0,0,0,12.84-2,27.3,27.3,0,0,0,9.9-6,26.88,26.88,0,0,0,6.42-9.78,36.14,36.14,0,0,0,2.28-13.26,34.28,34.28,0,0,0-2.28-12.72A27.57,27.57,0,0,0,252.06,27.66ZM237.18,61.32a8.8,8.8,0,0,1-7.74,4,9.15,9.15,0,0,1-7.86-3.9q-2.82-3.9-2.82-11.22t2.76-11.1a9.75,9.75,0,0,1,15.6,0q2.76,3.9,2.76,11.1T237.18,61.32Z"/><path class="cls-1" d="M320.76,25.14q-7.32-5.94-20.88-5.94A49.05,49.05,0,0,0,286.14,21a34.38,34.38,0,0,0-10.26,4.68,14.56,14.56,0,0,0-3.78,3.72,9.24,9.24,0,0,0-1.38,5.28v36a12.73,12.73,0,0,0,.78,4.86,6.93,6.93,0,0,0,2.22,2.94,8.07,8.07,0,0,0,3.54,1.44,28.22,28.22,0,0,0,4.74.36,38.61,38.61,0,0,0,5.34-.36,27.82,27.82,0,0,0,3.78-.72V37.56a12,12,0,0,1,4-1.8,19,19,0,0,1,4.74-.6,8.66,8.66,0,0,1,5.7,1.74q2.1,1.74,2.1,5.46V70.68a12.73,12.73,0,0,0,.78,4.86,6.93,6.93,0,0,0,2.22,2.94,8.07,8.07,0,0,0,3.54,1.44,28.22,28.22,0,0,0,4.74.36,38.61,38.61,0,0,0,5.34-.36,27.82,27.82,0,0,0,3.78-.72V41.64Q328.08,31.08,320.76,25.14Z"/></g></g></svg>